<svg width="531" height="456" viewBox="0 0 531 456" fill="none" xmlns="http://www.w3.org/2000/svg">
<g clip-path="url(#clip0_1_3)">
<circle cx="266" cy="228" r="219" fill="#222222"/>
<path d="M261.761 353.569C258.421 347.91 224.309 291.29 220.06 284.351C217.949 280.909 211.942 270.991 206.705 262.317C196.657 245.669 183.354 223.858 179.694 218.018C178.492 216.106 176.41 212.66 175.06 210.364C173.715 208.068 170.273 202.432 167.411 197.839C164.553 193.247 159.998 185.834 157.289 181.372C148.434 166.779 146.3 163.717 141.898 159.301C138.4 155.79 136.976 154.728 133.307 152.895C130.886 151.685 128.868 150.659 128.822 150.608C128.775 150.562 155.304 150.525 187.779 150.525H246.82L242.46 155.108C240.062 157.631 237.441 160.609 236.638 161.732L235.177 163.768L198.457 163.638L161.738 163.513L164.289 167.456C165.69 169.627 169.331 175.467 172.383 180.444C175.436 185.422 178.72 190.742 179.685 192.273C180.649 193.804 183.79 198.916 186.666 203.638C189.542 208.36 194.023 215.666 196.625 219.873C199.223 224.08 203.495 231.075 206.116 235.413C208.737 239.75 212.707 246.221 214.934 249.792C220.394 258.555 229.815 273.923 239.523 289.917C246.407 301.259 254.687 314.817 261.965 326.66C263.018 328.372 263.983 329.777 264.108 329.786C264.433 329.805 266.892 325.834 275.153 311.951C281.819 300.748 287.255 291.791 291.486 285.046C292.446 283.516 295.726 278.088 298.778 272.986C301.825 267.883 306.297 260.471 308.714 256.519C311.135 252.566 316.409 243.901 320.436 237.268C324.467 230.635 328.127 224.688 328.572 224.048C329.017 223.408 331.36 219.65 333.781 215.698C339.116 206.982 340.92 204.055 346.909 194.407C349.46 190.297 353.324 184.049 355.49 180.528C362.62 168.94 364.874 165.378 365.551 164.603C366.168 163.894 365.714 163.824 359.614 163.676C348.555 163.406 349.887 162.803 345.225 170.174C343.026 173.653 338.768 180.361 335.762 185.083C332.756 189.805 326.192 200.242 321.173 208.276C312.615 221.988 292.78 253.476 286.843 262.781C285.377 265.077 280.78 272.383 276.628 279.016C272.477 285.649 268.51 291.912 267.819 292.932C267.124 293.953 266.089 295.701 265.523 296.819C264.651 298.536 264.396 298.749 263.867 298.211C263.524 297.858 259.804 292.144 255.596 285.51C251.389 278.877 246.083 270.527 243.805 266.956C235.455 253.879 223.302 234.763 218.886 227.759C201.106 199.565 189.514 181.827 187.427 179.633L185.998 178.125H193.888H201.779L202.544 179.633C202.961 180.463 205.661 184.693 208.542 189.035C216.52 201.059 222.527 210.345 232.695 226.367C237.798 234.401 244.106 244.319 246.718 248.401C255.425 262.015 260.04 269.252 261.733 271.938C262.656 273.403 263.533 274.6 263.677 274.605C263.955 274.609 266.854 270.416 269.925 265.564C270.899 264.033 274.647 258.086 278.266 252.344C281.879 246.601 289.593 234.392 295.401 225.208C311.056 200.465 311.479 199.797 313.742 196.188C318.381 188.789 322.203 182.824 330.07 170.689L334.57 163.754L310.008 163.634L285.442 163.513L289.394 158.179C291.569 155.247 293.712 152.371 294.153 151.796L294.956 150.752L346.988 150.636L399.015 150.525L394.339 152.733C390.29 154.644 389.158 155.451 385.901 158.763C383.294 161.417 380.998 164.432 378.405 168.616C373.92 175.857 359.813 198.902 351.997 211.755C348.894 216.858 343.165 226.251 339.264 232.629C335.363 239.008 328.586 250.177 324.202 257.446C319.823 264.715 312.508 276.822 307.958 284.351C303.403 291.879 296.704 303.044 293.077 309.167C289.445 315.291 284.027 324.266 281.03 329.114C272.412 343.062 265.115 355.267 264.8 356.264C264.642 356.765 264.368 357.173 264.192 357.164C264.02 357.159 262.926 355.54 261.761 353.569Z" fill="#A0430A"/>
</g>
<defs>
<clipPath id="clip0_1_3">
<rect width="531" height="456" fill="white"/>
</clipPath>
</defs>
</svg>
